<?xml version="1.0" encoding="UTF-8" standalone="no"?>
<!-- Created with Inkscape (http://www.inkscape.org/) -->

<svg
   xmlns:dc="http://purl.org/dc/elements/1.1/"
   xmlns:cc="http://creativecommons.org/ns#"
   xmlns:rdf="http://www.w3.org/1999/02/22-rdf-syntax-ns#"
   xmlns:svg="http://www.w3.org/2000/svg"
   xmlns="http://www.w3.org/2000/svg"
   xmlns:xlink="http://www.w3.org/1999/xlink"
   xmlns:sodipodi="http://sodipodi.sourceforge.net/DTD/sodipodi-0.dtd"
   xmlns:inkscape="http://www.inkscape.org/namespaces/inkscape"
   version="1.0"
   width="16"
   height="16"
   id="svg3247"
   inkscape:version="0.48.3.1 r9886"
   sodipodi:docname="patient_add.svg">
  <metadata
     id="metadata17">
    <rdf:RDF>
      <cc:Work
         rdf:about="">
        <dc:format>image/svg+xml</dc:format>
        <dc:type
           rdf:resource="http://purl.org/dc/dcmitype/StillImage" />
        <dc:title></dc:title>
      </cc:Work>
    </rdf:RDF>
  </metadata>
  <sodipodi:namedview
     pagecolor="#ffffff"
     bordercolor="#666666"
     borderopacity="1"
     objecttolerance="10"
     gridtolerance="10"
     guidetolerance="10"
     inkscape:pageopacity="0"
     inkscape:pageshadow="2"
     inkscape:window-width="1476"
     inkscape:window-height="973"
     id="namedview15"
     showgrid="false"
     inkscape:zoom="14.75"
     inkscape:cx="8"
     inkscape:cy="8"
     inkscape:window-x="0"
     inkscape:window-y="24"
     inkscape:window-maximized="0"
     inkscape:current-layer="svg3247" />
  <defs
     id="defs3249">
    <linearGradient
       id="linearGradient2264">
      <stop
         id="stop2266"
         style="stop-color:#d7e866;stop-opacity:1"
         offset="0" />
      <stop
         id="stop2268"
         style="stop-color:#8cab2a;stop-opacity:1"
         offset="1" />
    </linearGradient>
    <linearGradient
       x1="24.103895"
       y1="15.180944"
       x2="24.103895"
       y2="34.224861"
       id="linearGradient2401"
       xlink:href="#linearGradient2264"
       gradientUnits="userSpaceOnUse"
       gradientTransform="matrix(0.709648,0,0,0.7053673,-8.9450299,-8.2362938)" />
    <linearGradient
       id="linearGradient3180">
      <stop
         id="stop3182"
         style="stop-color:#ffffff;stop-opacity:1"
         offset="0" />
      <stop
         id="stop3184"
         style="stop-color:#ffffff;stop-opacity:0"
         offset="1" />
    </linearGradient>
    <linearGradient
       x1="8"
       y1="0"
       x2="8"
       y2="16.004318"
       id="linearGradient3190"
       xlink:href="#linearGradient3180"
       gradientUnits="userSpaceOnUse" />
    <linearGradient
       gradientTransform="matrix(0.42808986,0,0,0.42296591,-2.823809,-3.2486024)"
       gradientUnits="userSpaceOnUse"
       xlink:href="#linearGradient3341"
       id="linearGradient2866"
       y2="43.144382"
       x2="29.955881"
       y1="21.86607"
       x1="29.955881" />
    <linearGradient
       gradientTransform="matrix(0.33685737,0,0,0.32161283,-0.10572085,-0.29529973)"
       gradientUnits="userSpaceOnUse"
       xlink:href="#linearGradient3341"
       id="linearGradient2864"
       y2="25.792814"
       x2="30"
       y1="0.91818392"
       x1="30" />
    <linearGradient
       gradientTransform="matrix(0.33685737,0,0,0.32161283,-0.10572085,-0.29529973)"
       gradientUnits="userSpaceOnUse"
       xlink:href="#linearGradient3785"
       id="linearGradient2862"
       y2="44.678879"
       x2="30"
       y1="5"
       x1="30" />
    <radialGradient
       gradientTransform="matrix(0.55250164,-0.0426402,0.04315608,0.50971914,-6.3026675,-1.9765067)"
       gradientUnits="userSpaceOnUse"
       xlink:href="#linearGradient6954"
       id="radialGradient2860"
       fy="12.31301"
       fx="26.375898"
       r="8"
       cy="12.31301"
       cx="26.375898" />
    <linearGradient
       gradientTransform="matrix(0.42808986,0,0,0.42296591,-2.823809,-3.2486024)"
       gradientUnits="userSpaceOnUse"
       xlink:href="#linearGradient3785"
       id="linearGradient2858"
       y2="45"
       x2="30"
       y1="25.084745"
       x1="30" />
    <radialGradient
       gradientTransform="matrix(0.56186795,0,0,0.15787922,-6.1682604,5.3385209)"
       gradientUnits="userSpaceOnUse"
       xlink:href="#linearGradient6954"
       id="radialGradient2856"
       fy="28.659998"
       fx="24.999998"
       r="16"
       cy="28.659998"
       cx="24.999998" />
    <linearGradient
       id="linearGradient3341">
      <stop
         offset="0"
         style="stop-color:white;stop-opacity:1"
         id="stop3343" />
      <stop
         offset="1"
         style="stop-color:white;stop-opacity:0"
         id="stop3345" />
    </linearGradient>
    <linearGradient
       id="linearGradient6954">
      <stop
         offset="0"
         style="stop-color:#f5f5f5;stop-opacity:1"
         id="stop6960" />
      <stop
         offset="1"
         style="stop-color:#d2d2d2;stop-opacity:1"
         id="stop6962" />
    </linearGradient>
    <linearGradient
       id="linearGradient3785">
      <stop
         offset="0"
         style="stop-color:#b8b8b8;stop-opacity:1"
         id="stop3787" />
      <stop
         offset="1"
         style="stop-color:#878787;stop-opacity:1"
         id="stop3789" />
    </linearGradient>
    <linearGradient
       y2="31.210939"
       x2="23.575972"
       y1="25.356892"
       x1="23.575972"
       spreadMethod="pad"
       gradientTransform="matrix(0.415777,-0.4174938,0.518983,0.5146192,-15.747227,2.6503673)"
       gradientUnits="userSpaceOnUse"
       id="linearGradient8639"
       xlink:href="#linearGradient3155-40"
       inkscape:collect="always" />
    <linearGradient
       id="linearGradient3155-40">
      <stop
         style="stop-color:#181818;stop-opacity:1;"
         offset="0"
         id="stop2541" />
      <stop
         id="stop2543"
         offset="0.13482948"
         style="stop-color:#dbdbdb;stop-opacity:1;" />
      <stop
         style="stop-color:#a4a4a4;stop-opacity:1;"
         offset="0.20224422"
         id="stop2545" />
      <stop
         id="stop2547"
         offset="0.26965895"
         style="stop-color:#ffffff;stop-opacity:1;" />
      <stop
         style="stop-color:#8d8d8d;stop-opacity:1;"
         offset="0.44650277"
         id="stop2549" />
      <stop
         id="stop2551"
         offset="0.57114136"
         style="stop-color:#959595;stop-opacity:1;" />
      <stop
         style="stop-color:#cecece;stop-opacity:1;"
         offset="0.72038066"
         id="stop2553" />
      <stop
         style="stop-color:#181818;stop-opacity:1;"
         offset="1"
         id="stop2555" />
    </linearGradient>
    <linearGradient
       y2="30.000141"
       x2="30.037716"
       y1="24.989594"
       x1="30.037716"
       gradientTransform="matrix(0.4040235,-0.4056919,0.6073752,0.6022679,-17.867764,0.6930272)"
       gradientUnits="userSpaceOnUse"
       id="linearGradient8641"
       xlink:href="#linearGradient3240-279"
       inkscape:collect="always" />
    <linearGradient
       id="linearGradient3240-279">
      <stop
         id="stop2559"
         offset="0"
         style="stop-color:#565656;stop-opacity:1;" />
      <stop
         style="stop-color:#9a9a9a;stop-opacity:1;"
         offset="0.5"
         id="stop2561" />
      <stop
         id="stop2563"
         offset="1"
         style="stop-color:#545454;stop-opacity:1;" />
    </linearGradient>
    <linearGradient
       y2="30.000141"
       x2="30.037716"
       y1="24.989594"
       x1="30.037716"
       gradientTransform="matrix(0.4040235,-0.4056919,0.6073752,0.6022679,-17.983472,0.8092126)"
       gradientUnits="userSpaceOnUse"
       id="linearGradient8643"
       xlink:href="#linearGradient3223-789"
       inkscape:collect="always" />
    <linearGradient
       id="linearGradient3223-789">
      <stop
         style="stop-color:#b1b1b1;stop-opacity:1;"
         offset="0"
         id="stop2567" />
      <stop
         id="stop2569"
         offset="0.5"
         style="stop-color:#ffffff;stop-opacity:1;" />
      <stop
         style="stop-color:#8f8f8f;stop-opacity:1;"
         offset="1"
         id="stop2571" />
    </linearGradient>
    <linearGradient
       y2="30.000141"
       x2="30.037716"
       y1="24.989594"
       x1="30.037716"
       gradientTransform="matrix(0.4040235,-0.4056919,0.6073752,0.6022679,-17.465684,0.2892868)"
       gradientUnits="userSpaceOnUse"
       id="linearGradient8645"
       xlink:href="#linearGradient3240-686"
       inkscape:collect="always" />
    <linearGradient
       id="linearGradient3240-686">
      <stop
         id="stop2575"
         offset="0"
         style="stop-color:#565656;stop-opacity:1;" />
      <stop
         style="stop-color:#9a9a9a;stop-opacity:1;"
         offset="0.5"
         id="stop2577" />
      <stop
         id="stop2579"
         offset="1"
         style="stop-color:#545454;stop-opacity:1;" />
    </linearGradient>
    <linearGradient
       y2="30.000141"
       x2="30.037716"
       y1="24.989594"
       x1="30.037716"
       gradientTransform="matrix(0.4040235,-0.4056919,0.6073752,0.6022679,-17.581392,0.4054707)"
       gradientUnits="userSpaceOnUse"
       id="linearGradient8647"
       xlink:href="#linearGradient3223-768"
       inkscape:collect="always" />
    <linearGradient
       id="linearGradient3223-768">
      <stop
         style="stop-color:#b1b1b1;stop-opacity:1;"
         offset="0"
         id="stop2583" />
      <stop
         id="stop2585"
         offset="0.5"
         style="stop-color:#ffffff;stop-opacity:1;" />
      <stop
         style="stop-color:#8f8f8f;stop-opacity:1;"
         offset="1"
         id="stop2587" />
    </linearGradient>
    <linearGradient
       y2="30.000141"
       x2="30.037716"
       y1="24.989594"
       x1="30.037716"
       gradientTransform="matrix(0.4040235,-0.4056919,0.6073752,0.6022679,-17.061661,-0.1164056)"
       gradientUnits="userSpaceOnUse"
       id="linearGradient8649"
       xlink:href="#linearGradient3240-907"
       inkscape:collect="always" />
    <linearGradient
       id="linearGradient3240-907">
      <stop
         id="stop2591"
         offset="0"
         style="stop-color:#565656;stop-opacity:1;" />
      <stop
         style="stop-color:#9a9a9a;stop-opacity:1;"
         offset="0.5"
         id="stop2593" />
      <stop
         id="stop2595"
         offset="1"
         style="stop-color:#545454;stop-opacity:1;" />
    </linearGradient>
    <linearGradient
       y2="30.000141"
       x2="30.037716"
       y1="24.989594"
       x1="30.037716"
       gradientTransform="matrix(0.4040235,-0.4056919,0.6073752,0.6022679,-17.177369,-2.1969969e-4)"
       gradientUnits="userSpaceOnUse"
       id="linearGradient8651"
       xlink:href="#linearGradient3223-699"
       inkscape:collect="always" />
    <linearGradient
       id="linearGradient3223-699">
      <stop
         style="stop-color:#b1b1b1;stop-opacity:1;"
         offset="0"
         id="stop2599" />
      <stop
         id="stop2601"
         offset="0.5"
         style="stop-color:#ffffff;stop-opacity:1;" />
      <stop
         style="stop-color:#8f8f8f;stop-opacity:1;"
         offset="1"
         id="stop2603" />
    </linearGradient>
    <linearGradient
       y2="26.02973"
       x2="9"
       y1="29.056757"
       x1="9"
       gradientTransform="matrix(0.4040235,-0.4056919,0.6073752,0.602268,-17.636692,0.462492)"
       gradientUnits="userSpaceOnUse"
       id="linearGradient8653"
       xlink:href="#linearGradient3290-678"
       inkscape:collect="always" />
    <linearGradient
       id="linearGradient3290-678">
      <stop
         style="stop-color:#ece5a5;stop-opacity:1;"
         offset="0"
         id="stop2607" />
      <stop
         style="stop-color:#fcfbf2;stop-opacity:1;"
         offset="1"
         id="stop2609" />
    </linearGradient>
    <linearGradient
       y2="41.391716"
       x2="9.5220556"
       y1="37.371799"
       x1="5.5178981"
       gradientTransform="matrix(0.3763801,0.03615261,0.03669995,0.374874,-2.2182805,-1.1331002)"
       gradientUnits="userSpaceOnUse"
       id="linearGradient8655"
       xlink:href="#linearGradient3191-577"
       inkscape:collect="always" />
    <linearGradient
       id="linearGradient3191-577">
      <stop
         style="stop-color:#dbce48;stop-opacity:1;"
         offset="0"
         id="stop2613" />
      <stop
         style="stop-color:#c5b625;stop-opacity:1;"
         offset="1"
         id="stop2615" />
    </linearGradient>
  </defs>
  <g
     id="g3743"
     transform="matrix(1.0496962,0,0,1.0496962,-4.1295722,-0.87983894)">
    <path
       style="fill:url(#radialGradient2856);fill-opacity:1;stroke:url(#linearGradient2858);stroke-width:0.95277232;stroke-linejoin:round;stroke-miterlimit:4;stroke-opacity:1;stroke-dasharray:none"
       id="path2880"
       d="M 8.84375,6.5 C 8.76311,7.180093 9.4339142,8.600105 9.0625,9.21875 7.6176751,9.7236407 5.0136423,10.644898 4.875,11.25 4.77263,12.189935 4.6190814,13.561421 4.5,14.5 c 2.5328977,1.368167 8.491801,1.30225 10.9375,0 -0.0863,-0.665917 -0.163702,-2.584084 -0.25,-3.25 C 14.53386,10.469482 12.812615,10.01275 11,9.21875 10.526353,8.602577 11.243461,7.22557 11.09375,6.53125 10.807324,6.482003 9.133812,6.507525 8.84375,6.5 z"
       inkscape:connector-curvature="0" />
    <path
       style="fill:url(#radialGradient2860);fill-opacity:1;stroke:url(#linearGradient2862);stroke-width:0.90230006;stroke-miterlimit:4;stroke-opacity:1;stroke-dasharray:none"
       id="path2870"
       d="m 10,1.46875 c -1.3953075,0 -2.53125,1.0066477 -2.53125,2.25 0.010946,0.4601408 0.05895,1.0054807 0.34375,2.25 0.1684289,0.4824189 1.6739448,1.7766941 1.6875,1.9375 0.3266416,0.1608049 0.850642,0.1608049 1.1875,0 0,-0.1608059 1.331572,-1.4550811 1.5,-1.9375 0.320478,-1.293427 0.326559,-1.7675806 0.34375,-2.25 0,-1.2433523 -1.13594,-2.25 -2.53125,-2.25 z"
       inkscape:connector-curvature="0" />
    <path
       style="fill:none;stroke:url(#linearGradient2864);stroke-width:0.90230006;stroke-miterlimit:4;stroke-opacity:1;stroke-dasharray:none"
       id="path2866"
       d="M 10,2.46875 C 9.3876089,2.453926 8.7330161,2.7993069 8.53125,3.40625 c -0.1135765,0.4104884 -0.010161,0.836839 0.03125,1.25 0.05222,0.3381399 0.1132782,0.6660809 0.1875,1 0.1940928,0.171452 0.3611426,0.3974634 0.5625,0.5625 C 9.5758075,6.4747814 9.8032965,6.7399516 10.0625,7 10.330703,6.7826897 10.510924,6.4967292 10.75,6.25 10.902681,6.070177 11.060251,5.8623797 11.21875,5.6875 11.376386,4.9772187 11.558479,4.2653005 11.5,3.53125 11.375368,2.844477 10.652976,2.4515616 10,2.46875 z"
       inkscape:connector-curvature="0" />
    <path
       style="fill:none;stroke:url(#linearGradient2866);stroke-width:0.95277232;stroke-linejoin:round;stroke-miterlimit:4;stroke-opacity:1;stroke-dasharray:none"
       id="path2876"
       d="m 10,9.0625 c 0.04083,0.6184717 -0.4844988,1.101042 -1.0625,1.1875 -1.0618145,0.377577 -2.1650919,0.706505 -3.125,1.3125 -0.224724,0.540724 -0.1042376,1.160705 -0.25,1.71875 -0.3309301,0.708961 0.5690774,0.776057 1.03125,0.90625 2.2561001,0.540715 4.652113,0.499061 6.90625,-0.03125 0.335847,-0.168593 1.138282,-0.08494 0.9375,-0.625 C 14.37527,12.943737 14.34558,12.339597 14.3125,11.75 13.392452,11.041669 12.225582,10.792671 11.1875,10.3125 10.364527,10.195739 10.334895,9.5928835 10,9.0625 z"
       inkscape:connector-curvature="0" />
  </g>
  <g
     inkscape:label="Layer 1"
     id="layer1-7"
     transform="matrix(0.5142467,0,0,0.5142467,7.3435536,4.8843936)">
    <path
       inkscape:transform-center-y="-1.7158265"
       inkscape:transform-center-x="-8.4393233"
       style="opacity:0.15;fill:#0c0c0c;fill-opacity:1;fill-rule:evenodd;stroke:none"
       d="m 13.219868,12.085402 c -0.135595,-0.02111 -0.239457,-0.01225 -0.307686,0.003 l -9.0874927,2.017202 -1.6724992,0.372194 -0.051633,0.008 -1.9387153,1.432663 4.9498341,-0.07402 0.040722,-0.0095 1.6834123,-0.370698 9.0845618,-2.03263 c 0.272911,-0.06092 -0.177299,-0.409927 -1.009983,-0.78431 -0.624515,-0.280788 -1.283742,-0.498541 -1.690521,-0.561884 z"
       id="path2422"
       inkscape:connector-curvature="0" />
    <g
       transform="matrix(1.030012,0,0,1.0325071,-0.016773,-0.5215254)"
       id="g8626">
      <path
         style="fill:url(#linearGradient8639);fill-opacity:1;stroke:#0c0c0c;stroke-width:0.94282436;stroke-linecap:butt;stroke-linejoin:round;stroke-miterlimit:4;stroke-opacity:1;stroke-dasharray:none;stroke-dashoffset:0"
         d="m 2.0488085,11.037368 c 0.2865424,-0.207707 1.1479509,0.256388 1.9603385,1.061945 0.8104458,0.803629 1.2601996,1.641331 1.0575577,1.930575 -7.708e-4,0.0011 0.01977,0.01774 0.01898,0.01882 L 15.224149,3.8683779 C 15.481557,3.6099071 15.011041,2.7247557 14.172862,1.893626 13.334685,1.0624962 12.444681,0.59856571 12.187272,0.85703737 L 2.0488085,11.037368 z"
         id="rect2383"
         inkscape:transform-center-x="-9.3983079"
         inkscape:transform-center-y="-8.5737916"
         inkscape:connector-curvature="0" />
      <path
         style="opacity:0.8;fill:#ffb6ed;fill-opacity:1;stroke:#e28ccd;stroke-width:0.94282436;stroke-linecap:butt;stroke-linejoin:round;stroke-miterlimit:4;stroke-opacity:1;stroke-dasharray:none;stroke-dashoffset:0"
         d="m 10.565423,2.4840909 c 0.286542,-0.2077065 1.147951,0.2563879 1.960338,1.0619443 0.810445,0.8036291 1.260199,1.6413295 1.057557,1.9305744 -7.69e-4,0.0011 0.01977,0.017738 0.01898,0.018821 L 15.154234,3.9383089 C 15.562715,3.5297289 15.124956,2.8454879 14.172862,1.893626 13.360476,1.0880699 12.499066,0.6239749 12.212525,0.83168148 l -0.02525,0.0253559 -1.621849,1.62705352 z"
         id="rect3175"
         sodipodi:nodetypes="csscccccc"
         inkscape:transform-center-x="-14.039749"
         inkscape:transform-center-y="-12.827689"
         inkscape:connector-curvature="0" />
      <path
         style="opacity:0.6;fill:#0c0c0c;fill-opacity:1;stroke:none"
         d="m 2.0488079,11.037368 c 0.286543,-0.207708 1.1479512,0.256388 1.960339,1.061943 0.8104449,0.80363 1.2601992,1.641332 1.0575579,1.930577 -7.714e-4,0.0011 0.01977,0.01774 0.01898,0.01882 l 6.9820302,-7.0108637 0.02525,-0.025356 c 7.9e-4,-0.00108 -0.01975,-0.01772 -0.01898,-0.01882 C 12.276628,6.7044221 11.826873,5.8667226 11.01643,5.0630931 10.204041,4.2575368 9.3426319,3.7934425 9.0560897,4.0011493 l -0.025251,0.025355 -6.9820304,7.0108637 z"
         id="path3208"
         inkscape:transform-center-x="-7.6735182"
         inkscape:transform-center-y="-6.9998429"
         inkscape:connector-curvature="0" />
      <path
         style="fill:url(#linearGradient8641);fill-opacity:1;stroke:none"
         d="m 9.1785348,3.8767048 c 0.2865413,-0.2077068 1.1479522,0.2563879 1.9603392,1.0619443 0.810445,0.8036291 1.2602,1.6413294 1.057556,1.9305753 -7.71e-4,0.0011 0.01977,0.017736 0.01898,0.01882 l 0.126256,-0.1267795 c 7.9e-4,-0.00108 -0.01975,-0.01772 -0.01898,-0.01882 C 12.525331,6.4531992 12.075576,5.6154986 11.26513,4.8118704 10.452743,4.0063135 9.5913335,3.542219 9.3047918,3.7499256 l -0.126257,0.1267792 z"
         id="path3233"
         inkscape:transform-center-x="-11.687278"
         inkscape:transform-center-y="-10.684694"
         inkscape:connector-curvature="0" />
      <path
         style="fill:url(#linearGradient8643);fill-opacity:1;stroke:none"
         d="m 9.0628273,3.9928895 c 0.2865436,-0.2077068 1.1479527,0.2563878 1.9603397,1.061944 0.810444,0.8036294 1.2602,1.6413292 1.057556,1.9305742 -7.71e-4,0.0011 0.01977,0.017738 0.01898,0.018822 L 12.22596,6.8774498 c 7.9e-4,-0.00108 -0.01975,-0.017721 -0.01898,-0.018821 C 12.409623,6.569384 11.95987,5.7316836 11.149423,4.9280545 10.337036,4.1224982 9.4756273,3.6584033 9.1890844,3.8661101 L 9.0628273,3.9928895 z"
         id="path3216"
         inkscape:transform-center-x="-11.561394"
         inkscape:transform-center-y="-10.569171"
         inkscape:connector-curvature="0" />
      <path
         style="fill:url(#linearGradient8645);fill-opacity:1;stroke:none"
         d="m 9.5806143,3.4729643 c 0.2865426,-0.2077069 1.1479517,0.2563872 1.9603387,1.0619442 0.810446,0.803629 1.2602,1.6413292 1.057558,1.9305747 -7.73e-4,0.0011 0.01977,0.017737 0.01898,0.01882 l 0.126258,-0.1267784 c 7.91e-4,-0.00108 -0.01975,-0.017721 -0.01898,-0.01882 C 12.927411,6.0494594 12.477656,5.2117588 11.66721,4.4081298 10.854824,3.6025731 9.9934151,3.1384786 9.7068717,3.3461854 L 9.5806143,3.4729643 z"
         id="path3248"
         inkscape:transform-center-x="-12.124723"
         inkscape:transform-center-y="-11.086128"
         inkscape:connector-curvature="0" />
      <path
         style="fill:url(#linearGradient8647);fill-opacity:1;stroke:none"
         d="m 9.4649071,3.5891488 c 0.2865435,-0.207707 1.1479529,0.2563877 1.9603379,1.061944 0.810447,0.8036298 1.260201,1.6413294 1.057558,1.9305748 -7.69e-4,0.0011 0.01977,0.017737 0.01898,0.018821 l 0.126257,-0.12678 c 7.9e-4,-0.00108 -0.01975,-0.01772 -0.01898,-0.01882 C 12.811705,6.1656438 12.361949,5.3279425 11.551504,4.5243147 10.739118,3.718758 9.877708,3.254663 9.5911645,3.46237 L 9.4649071,3.5891488 z"
         id="path3250"
         inkscape:transform-center-x="-11.998839"
         inkscape:transform-center-y="-10.970607"
         inkscape:connector-curvature="0" />
      <path
         style="fill:url(#linearGradient8649);fill-opacity:1;stroke:none"
         d="M 9.9846388,3.0672723 C 10.27118,2.8595657 11.13259,3.3236601 11.944976,4.1292168 c 0.810446,0.8036288 1.260201,1.641329 1.057558,1.9305741 -7.7e-4,0.0011 0.01977,0.017738 0.01898,0.018821 L 13.14777,5.9518328 c 7.92e-4,-0.00108 -0.01975,-0.017721 -0.01898,-0.018821 C 13.331434,5.6437674 12.881679,4.8060668 12.071233,4.0024374 11.258848,3.1968815 10.397438,2.7327869 10.110895,2.9404937 L 9.9846388,3.0672723 z"
         id="path3256"
         inkscape:transform-center-x="-12.564281"
         inkscape:transform-center-y="-11.489504"
         inkscape:connector-curvature="0" />
      <path
         style="fill:url(#linearGradient8651);fill-opacity:1;stroke:none"
         d="m 9.8689318,3.1834569 c 0.2865412,-0.2077072 1.1479512,0.2563879 1.9603392,1.0619447 0.810444,0.8036283 1.260198,1.6413291 1.057556,1.9305739 -7.71e-4,0.0011 0.01977,0.017737 0.01898,0.018821 l 0.126258,-0.1267782 c 7.89e-4,-0.00108 -0.01975,-0.017722 -0.01898,-0.018821 C 13.215727,5.7599515 12.765972,4.9222512 11.955527,4.1186224 11.143141,3.313066 10.281731,2.848971 9.9951884,3.0566783 L 9.8689318,3.1834569 z"
         id="path3258"
         inkscape:transform-center-x="-12.438397"
         inkscape:transform-center-y="-11.373981"
         inkscape:connector-curvature="0" />
      <path
         sodipodi:nodetypes="cccscc"
         id="path3270"
         d="m 0.25980529,15.79419 4.77185621,-1.725488 0.039308,-0.03926 C 5.2736124,13.740202 4.8185731,12.902156 4.0081274,12.098526 3.1957395,11.29297 2.335449,10.831246 2.0489062,11.038953 L 0.25980529,15.79419 z"
         style="fill:url(#linearGradient8653);fill-opacity:1;fill-rule:evenodd;stroke:url(#linearGradient8655);stroke-width:0.94282436;stroke-linecap:butt;stroke-linejoin:miter;stroke-miterlimit:4;stroke-opacity:1;stroke-dasharray:none"
         inkscape:transform-center-x="-2.8267936"
         inkscape:transform-center-y="-2.7057213"
         inkscape:connector-curvature="0" />
      <path
         style="fill:#0c0c0c;fill-opacity:1;fill-rule:evenodd;stroke:#0c0c0c;stroke-width:0.94282436;stroke-linecap:butt;stroke-linejoin:miter;stroke-miterlimit:4;stroke-opacity:1;stroke-dasharray:none"
         d="M 0.7444326,14.506276 0.25922075,15.788967 1.560593,15.315574 C 1.446907,15.182439 1.3413094,15.047739 1.2062351,14.913801 1.0507282,14.759602 0.89915498,14.633134 0.7444326,14.506276 z"
         id="path3281"
         inkscape:transform-center-x="-0.93674026"
         inkscape:transform-center-y="-0.91293426"
         inkscape:connector-curvature="0" />
    </g>
  </g>
</svg>
