<?xml version="1.0" encoding="UTF-8" standalone="no"?>
<!-- Created with Inkscape (http://www.inkscape.org/) -->

<svg
   xmlns:dc="http://purl.org/dc/elements/1.1/"
   xmlns:cc="http://creativecommons.org/ns#"
   xmlns:rdf="http://www.w3.org/1999/02/22-rdf-syntax-ns#"
   xmlns:svg="http://www.w3.org/2000/svg"
   xmlns="http://www.w3.org/2000/svg"
   xmlns:xlink="http://www.w3.org/1999/xlink"
   xmlns:sodipodi="http://sodipodi.sourceforge.net/DTD/sodipodi-0.dtd"
   xmlns:inkscape="http://www.inkscape.org/namespaces/inkscape"
   version="1.0"
   width="16"
   height="16"
   id="svg3247"
   inkscape:version="0.48.3.1 r9886"
   sodipodi:docname="patient_add_small.svg"
   inkscape:export-filename="/home/dreaswar/Programming/githubrepos/AuShadha_sandbox/src/AuShadha/AuShadha/media/images/patient/patient_add_small.png"
   inkscape:export-xdpi="67.5"
   inkscape:export-ydpi="67.5">
  <metadata
     id="metadata17">
    <rdf:RDF>
      <cc:Work
         rdf:about="">
        <dc:format>image/svg+xml</dc:format>
        <dc:type
           rdf:resource="http://purl.org/dc/dcmitype/StillImage" />
        <dc:title></dc:title>
      </cc:Work>
    </rdf:RDF>
  </metadata>
  <sodipodi:namedview
     pagecolor="#ffffff"
     bordercolor="#666666"
     borderopacity="1"
     objecttolerance="10"
     gridtolerance="10"
     guidetolerance="10"
     inkscape:pageopacity="0"
     inkscape:pageshadow="2"
     inkscape:window-width="1252"
     inkscape:window-height="917"
     id="namedview15"
     showgrid="false"
     inkscape:zoom="20.85965"
     inkscape:cx="17.846369"
     inkscape:cy="9.9082939"
     inkscape:window-x="123"
     inkscape:window-y="101"
     inkscape:window-maximized="0"
     inkscape:current-layer="svg3247" />
  <defs
     id="defs3249">
    <linearGradient
       id="linearGradient2264">
      <stop
         id="stop2266"
         style="stop-color:#d7e866;stop-opacity:1"
         offset="0" />
      <stop
         id="stop2268"
         style="stop-color:#8cab2a;stop-opacity:1"
         offset="1" />
    </linearGradient>
    <linearGradient
       x1="24.103895"
       y1="15.180944"
       x2="24.103895"
       y2="34.224861"
       id="linearGradient2401"
       xlink:href="#linearGradient2264"
       gradientUnits="userSpaceOnUse"
       gradientTransform="matrix(0.709648,0,0,0.7053673,-8.9450299,-8.2362938)" />
    <linearGradient
       id="linearGradient3180">
      <stop
         id="stop3182"
         style="stop-color:#ffffff;stop-opacity:1"
         offset="0" />
      <stop
         id="stop3184"
         style="stop-color:#ffffff;stop-opacity:0"
         offset="1" />
    </linearGradient>
    <linearGradient
       x1="8"
       y1="0"
       x2="8"
       y2="16.004318"
       id="linearGradient3190"
       xlink:href="#linearGradient3180"
       gradientUnits="userSpaceOnUse" />
    <linearGradient
       gradientTransform="matrix(0.42808986,0,0,0.42296591,-2.823809,-3.2486024)"
       gradientUnits="userSpaceOnUse"
       xlink:href="#linearGradient3341"
       id="linearGradient2866"
       y2="43.144382"
       x2="29.955881"
       y1="21.86607"
       x1="29.955881" />
    <linearGradient
       gradientTransform="matrix(0.33685737,0,0,0.32161283,-0.10572085,-0.29529973)"
       gradientUnits="userSpaceOnUse"
       xlink:href="#linearGradient3341"
       id="linearGradient2864"
       y2="25.792814"
       x2="30"
       y1="0.91818392"
       x1="30" />
    <linearGradient
       gradientTransform="matrix(0.33685737,0,0,0.32161283,-0.10572085,-0.29529973)"
       gradientUnits="userSpaceOnUse"
       xlink:href="#linearGradient3785"
       id="linearGradient2862"
       y2="44.678879"
       x2="30"
       y1="5"
       x1="30" />
    <radialGradient
       gradientTransform="matrix(0.55250164,-0.0426402,0.04315608,0.50971914,-6.3026675,-1.9765067)"
       gradientUnits="userSpaceOnUse"
       xlink:href="#linearGradient6954"
       id="radialGradient2860"
       fy="12.31301"
       fx="26.375898"
       r="8"
       cy="12.31301"
       cx="26.375898" />
    <linearGradient
       gradientTransform="matrix(0.42808986,0,0,0.42296591,-2.823809,-3.2486024)"
       gradientUnits="userSpaceOnUse"
       xlink:href="#linearGradient3785"
       id="linearGradient2858"
       y2="45"
       x2="30"
       y1="25.084745"
       x1="30" />
    <radialGradient
       gradientTransform="matrix(0.56186795,0,0,0.15787922,-6.1682604,5.3385209)"
       gradientUnits="userSpaceOnUse"
       xlink:href="#linearGradient6954"
       id="radialGradient2856"
       fy="28.659998"
       fx="24.999998"
       r="16"
       cy="28.659998"
       cx="24.999998" />
    <linearGradient
       id="linearGradient3341">
      <stop
         offset="0"
         style="stop-color:white;stop-opacity:1"
         id="stop3343" />
      <stop
         offset="1"
         style="stop-color:white;stop-opacity:0"
         id="stop3345" />
    </linearGradient>
    <linearGradient
       id="linearGradient6954">
      <stop
         offset="0"
         style="stop-color:#f5f5f5;stop-opacity:1"
         id="stop6960" />
      <stop
         offset="1"
         style="stop-color:#d2d2d2;stop-opacity:1"
         id="stop6962" />
    </linearGradient>
    <linearGradient
       id="linearGradient3785">
      <stop
         offset="0"
         style="stop-color:#b8b8b8;stop-opacity:1"
         id="stop3787" />
      <stop
         offset="1"
         style="stop-color:#878787;stop-opacity:1"
         id="stop3789" />
    </linearGradient>
    <linearGradient
       x1="8"
       y1="0"
       x2="8"
       y2="16.004318"
       id="linearGradient3190-0"
       xlink:href="#linearGradient3180-9"
       gradientUnits="userSpaceOnUse" />
    <linearGradient
       id="linearGradient3180-9">
      <stop
         id="stop3182-3"
         style="stop-color:#ffffff;stop-opacity:1"
         offset="0" />
      <stop
         id="stop3184-6"
         style="stop-color:#ffffff;stop-opacity:0"
         offset="1" />
    </linearGradient>
    <linearGradient
       inkscape:collect="always"
       xlink:href="#linearGradient3341"
       id="linearGradient3825"
       gradientUnits="userSpaceOnUse"
       gradientTransform="matrix(0.45375751,0,0,0.49626422,-7.1687868,-6.4585463)"
       x1="29.955881"
       y1="21.86607"
       x2="29.955881"
       y2="43.144382" />
    <linearGradient
       inkscape:collect="always"
       xlink:href="#linearGradient3341"
       id="linearGradient3828"
       gradientUnits="userSpaceOnUse"
       gradientTransform="matrix(0.35705485,0,0,0.34089384,-4.287726,-1.3518946)"
       x1="30"
       y1="0.91818392"
       x2="30"
       y2="25.792814" />
    <linearGradient
       inkscape:collect="always"
       xlink:href="#linearGradient3785"
       id="linearGradient3831"
       gradientUnits="userSpaceOnUse"
       gradientTransform="matrix(0.35705485,0,0,0.36225933,-4.287726,-1.4690844)"
       x1="30"
       y1="5"
       x2="30"
       y2="44.678879" />
    <linearGradient
       inkscape:collect="always"
       xlink:href="#linearGradient3785"
       id="linearGradient3834"
       gradientUnits="userSpaceOnUse"
       gradientTransform="matrix(0.45375751,0,0,0.44832314,-7.1687868,-4.4822507)"
       x1="30"
       y1="25.084745"
       x2="30"
       y2="45" />
    <linearGradient
       inkscape:collect="always"
       xlink:href="#linearGradient3180-9"
       id="linearGradient3843"
       gradientUnits="userSpaceOnUse"
       gradientTransform="matrix(0.33008667,0,0,0.31122987,10.015174,0.91905378)"
       x1="8"
       y1="0"
       x2="8"
       y2="16.004318" />
  </defs>
  <path
     inkscape:connector-curvature="0"
     d="M 5.1983422,5.8507902 C 5.1128677,6.5716554 5.8238918,8.0767985 5.4302081,8.7325319 3.8987536,9.2676913 1.1385868,10.244179 0.99163167,10.885557 0.88312371,11.881843 0.72036855,13.33555 0.5941472,14.330398 c 2.6847666,1.45019 9.0009571,1.380321 11.5932968,0 -0.09148,-0.70584 -0.173517,-2.739002 -0.26499,-3.444841 C 11.229623,10.058247 9.4051746,9.574133 7.4838778,8.7325319 6.9818316,8.0794187 7.7419364,6.6198587 7.5832489,5.8839136 7.2796492,5.8317142 5.5057958,5.8587662 5.1983422,5.8507902 z"
     id="path2880"
     style="fill:#000000;fill-opacity:1;stroke:url(#linearGradient3834);stroke-width:1.00012136;stroke-linejoin:round;stroke-miterlimit:4;stroke-opacity:1;stroke-dasharray:none" />
  <path
     inkscape:connector-curvature="0"
     style="fill:#333333;fill-opacity:1;fill-rule:evenodd;stroke:#699536;stroke-width:0.99999994;stroke-linecap:butt;stroke-linejoin:round;stroke-miterlimit:4;stroke-opacity:1;stroke-dasharray:none;display:inline"
     id="path2262-3"
     d="m 11.698259,2.5168602 0,-1.78509612 1.785109,0 0,1.78509612 1.785108,0 0,1.7850961 -1.785108,0 0,1.7850962 -1.785109,0 0,-1.7850962 -1.7851095,0 0,-1.7850961 1.7851095,0 z" />
  <path
     inkscape:connector-curvature="0"
     style="fill:#1a1a1a;stroke:url(#linearGradient3843);stroke-width:0.99999988;stroke-linecap:butt;stroke-linejoin:miter;stroke-miterlimit:4;stroke-opacity:1;stroke-dasharray:none;display:inline"
     id="path3188-9"
     d="m 12.160737,1.3858984 0,1.2449197 C 12.159122,2.802082 12.012291,2.9405512 11.83065,2.942048 l -1.320347,0 0,0.9336897 1.320347,0 c 0.181641,0.00149 0.3285,0.1399661 0.330087,0.3112298 l 0,1.2449195 0.990259,0 0,-1.2449195 c 0.0016,-0.1712637 0.148448,-0.3097332 0.330088,-0.3112298 l 1.320346,0 0,-0.9336897 -1.320346,0 c -0.18164,-0.0015 -0.3285,-0.139966 -0.330088,-0.3112299 l 0,-1.2449197 -0.990259,0 z" />
  <path
     inkscape:connector-curvature="0"
     d="M 6.4239193,7.9860211 C 6.4671974,8.7116714 5.9103707,9.2778692 5.2977133,9.37931 4.1722339,9.8223193 3.0028056,10.20825 1.9853428,10.91926 c -0.2381982,0.63443 -0.1104876,1.361852 -0.2649896,2.016604 -0.3507723,0.83182 0.6031984,0.910545 1.0930822,1.0633 2.3913726,0.634417 4.931047,0.585545 7.3203396,-0.03667 0.355983,-0.19781 1.206531,-0.09965 0.993711,-0.73331 -0.06596,-0.689326 -0.09743,-1.398162 -0.132495,-2.089934 C 10.019778,10.308172 8.782944,10.016023 7.68262,9.452641 6.8103028,9.3156458 6.7788941,8.6083178 6.4239193,7.9860211 z"
     id="path2876"
     style="fill:#000000;stroke:url(#linearGradient3825);stroke-width:1.00012136;stroke-linejoin:round;stroke-miterlimit:4;stroke-opacity:1;stroke-dasharray:none" />
  <path
     inkscape:connector-curvature="0"
     d="m 6.4239193,0.51791166 c -1.4789682,0 -2.6830201,1.13387124 -2.6830201,2.53436244 0.011602,0.518295 0.062485,1.1325568 0.3643608,2.5343625 0.1785275,0.5433886 1.7743121,2.0012386 1.78868,2.1823677 0.3462265,0.1811279 0.9016453,0.1811279 1.2587007,0 0,-0.1811291 1.4114112,-1.6389791 1.5899379,-2.1823677 0.3396934,-1.4568946 0.346139,-1.9909733 0.3643607,-2.5343625 0,-1.4004912 -1.2040493,-2.53436244 -2.68302,-2.53436244 z"
     id="path2870"
     style="fill:#000000;fill-opacity:1;stroke:url(#linearGradient3831);stroke-width:0.94714087;stroke-miterlimit:4;stroke-opacity:1;stroke-dasharray:none" />
  <path
     inkscape:connector-curvature="0"
     d="M 6.4239193,1.5778627 C 5.7748101,1.56215 5.0809688,1.9282368 4.8671051,2.5715667 4.7467188,3.0066644 4.8563348,3.4585751 4.9002288,3.8965055 4.9555798,4.2549172 5.020299,4.6025186 5.098971,4.9564565 5.3047014,5.1381872 5.4817673,5.3777482 5.6951978,5.5526789 5.9742927,5.8240596 6.2154217,6.105127 6.4901667,6.3807657 6.7744507,6.1504274 6.9654775,5.8473232 7.2188882,5.5858024 7.3807237,5.3951988 7.5477413,5.1749439 7.7157437,4.9895799 7.8828314,4.2367165 8.0758424,3.4821182 8.0138571,2.7040606 7.8817524,1.9761149 7.1160467,1.5596438 6.4239193,1.5778627 z"
     id="path2866"
     style="fill:#000000;stroke:url(#linearGradient3828);stroke-width:0.94714087;stroke-miterlimit:4;stroke-opacity:1;stroke-dasharray:none" />
</svg>
